<svg xmlns="http://www.w3.org/2000/svg" xmlns:xlink="http://www.w3.org/1999/xlink" width="445pt" height="445pt" viewBox="0 0 445 445" version="1.1">
<g id="surface1">
<path style=" stroke:none;fill-rule:nonzero;fill:#c3c8dd;fill-opacity:1;" d="M 103 111.492188 C 77.300781 116.269531 56.832031 126.839844 38.699219 144.707031 C 5.945312 176.976562 -4.679688 228.5 11.996094 274.199219 C 27.402344 316.425781 65.601562 344.113281 113.5 347.78125 C 135.101562 349.433594 158.054688 346.625 175.800781 340.152344 C 189.300781 335.230469 208.507812 324.347656 219.699219 315.28125 L 224 311.800781 L 224 212 L 125 212 L 125 255 L 176 255 L 176 288.898438 L 173 291.007812 C 168.660156 294.058594 158.398438 298.515625 150.898438 300.613281 C 145.894531 302.011719 140.800781 302.410156 127.5 302.449219 C 111.601562 302.496094 110.027344 302.328125 103.199219 299.820312 C 92.699219 295.96875 85.636719 291.4375 77.601562 283.398438 C 66.113281 271.914062 59.5 258.300781 56.953125 240.898438 C 52.148438 208.101562 67.214844 177.078125 95 162.554688 C 109.71875 154.863281 127.5 153.496094 147.300781 158.53125 C 155.800781 160.695312 168.671875 167.074219 176.5 173.003906 C 180.101562 175.726562 183.464844 178 183.898438 178 C 184.71875 178 214.167969 142.699219 214.769531 141 C 215.160156 139.890625 200.300781 129.3125 192 124.800781 C 173.554688 114.765625 157.300781 111.011719 130 110.480469 C 116 110.207031 108.386719 110.492188 103 111.492188 "/>
<path style=" stroke:none;fill-rule:nonzero;fill:#c3c8dd;fill-opacity:1;" d="M 229 229.449219 L 229 345 L 272.398438 345 C 340.300781 345 353.429688 343.242188 378.398438 330.8125 C 391.199219 324.441406 399.554688 318.445312 409.5 308.5 C 430.105469 287.894531 441 260.5 441 229.300781 C 441 207.800781 437.03125 191.101562 427.851562 174 C 412.453125 145.304688 386.101562 125.804688 351.101562 117.203125 L 340.5 114.601562 L 229 113.898438 Z M 338.898438 160.949219 C 359.398438 166.910156 372.976562 177.929688 381.464844 195.5 C 387.023438 207.011719 389 216 389 229.800781 C 389 261 373.085938 285.1875 346.101562 295 C 334.445312 299.238281 326.101562 300.125 301 299.796875 L 278.5 299.5 L 278.25 230 C 278.113281 191.800781 278.226562 159.871094 278.5 159.101562 C 278.914062 157.9375 283.449219 157.792969 305.25 158.25 C 328.050781 158.726562 332.472656 159.082031 338.898438 160.949219 "/>
</g>
</svg>