<?xml version="1.0" encoding="UTF-8"?>
<svg id="Layer_1" data-name="Layer 1" xmlns="http://www.w3.org/2000/svg" viewBox="0 0 270.25 149.41">
  <defs>
    <style>
      .cls-1 {
        fill: #fff;
      }
    </style>
  </defs>
  <path class="cls-1" d="M145.74,112.2h-5.92v10.66h5.92c5.81,0,5.95-.03,7.46-1.55,1.21-1.22,1.55-2.03,1.55-3.79s-.33-2.57-1.55-3.79c-1.52-1.52-1.65-1.55-7.46-1.55Z"/>
  <path class="cls-1" d="M88.8,112.91c-1-.42-3.7-.72-6.53-.72h-4.82l.27,22.66,4.74-.11c7.62-.19,11.2-2.69,12.55-8.79,1.16-5.22-1.65-11.12-6.21-13.04Z"/>
  <path class="cls-1" d="M26.8,113.39c-1.94-.98-3.2-1.19-7.3-1.19h-4.96l.27,22.66,4.9-.11c5.49-.12,8.08-1.07,10.41-3.84,4.53-5.36,2.81-14.41-3.32-17.52Z"/>
  <path class="cls-1" d="M147.81,93.96c2.01,1.07,2.99,1.25,5.97,1.08,4.43-.26,7.45-2.13,9.31-5.76,3.05-5.97.65-13.53-5.26-16.57-2.83-1.46-7.09-1.37-10.08.21-7.97,4.21-7.94,16.77.05,21.04Z"/>
  <path class="cls-1" d="M194.25,81.33c1.21-1.22,1.55-2.03,1.55-3.79s-.33-2.57-1.55-3.79c-1.52-1.52-1.65-1.55-7.46-1.55h-5.92v10.66h5.92c5.81,0,5.95-.03,7.46-1.55Z"/>
  <path class="cls-1" d="M262.95,0H7.3C3.27,0,0,3.27,0,7.3v134.82c0,4.03,3.27,7.3,7.3,7.3h255.66c4.03,0,7.3-3.27,7.3-7.3V7.3c0-4.03-3.27-7.3-7.3-7.3ZM173.4,83.33v-18.74l10.23.3c11.73.35,13.56.77,16.74,3.83,2.68,2.58,3.66,5.62,3.25,10.04-.36,3.84-2.15,6.71-5.38,8.61l-2.4,1.41,9.06,13.27h-9.12l-4.08-6.13-4.08-6.13h-6.77v12.26h-7.46v-18.74ZM114.44,64.78c3.18-.62,4.85-.62,8.58.02,3.36.57,9.47,3.5,9.34,4.48-.04.3-1.05,1.76-2.28,3.3-1.96,2.45-2.31,2.68-3.07,2.01-1.7-1.52-5.65-2.88-8.42-2.89-3.41-.02-6.2,1.26-8.53,3.92-4.66,5.3-3.15,14.71,2.93,18.27,3.06,1.79,7.94,1.99,11.3.47,2.17-.98,2.19-1.02,2.19-3.84v-2.85h-8v-6.93h7.73c7.68,0,7.73,0,7.73-1.2,0-.67.57-2.43,1.29-3.97,6.7-14.39,28.23-14.91,35.41-.85,3.81,7.46,2,17.17-4.24,22.77-9.34,8.39-25.36,5.64-30.81-5.29l-1.06-2.13-.03,3.3c-.02,2.99-.17,3.41-1.52,4.36-9.65,6.8-21.9,6.24-28.92-1.32-3.45-3.71-4.51-6.77-4.51-13.01,0-4.37.19-5.48,1.42-8.1,2.5-5.33,7.69-9.4,13.45-10.53ZM41.2,83.33v-18.74l10.56.27c9.86.25,10.75.36,13.54,1.62,5.56,2.52,7.99,8.19,6.24,14.53-.55,1.99-4.1,6.1-6.45,7.47-.8.47-.42,1.25,3.2,6.58l4.1,6.05.13-18.18.13-18.18h27.72v6.93l-19.99.27-.32,7.73h17.65v6.93h-17.65l.32,8.26,19.99.27v6.93h-36.52l-8-12.26h-6.66v12.26h-8v-18.74ZM38.96,131.71c-1.52,2.88-5.15,6.54-7.89,7.96-3.05,1.58-8.53,2.38-16.37,2.38h-7.62v-37.32l6.56.02c8.05.02,13.28.67,16.53,2.06,3.3,1.41,7.07,4.96,8.84,8.32,1.25,2.39,1.4,3.25,1.4,8.26s-.15,5.88-1.44,8.32ZM40.66,96.68l-1.49,1.05c-9.65,6.8-21.9,6.24-28.92-1.32-3.45-3.71-4.51-6.77-4.51-13.01,0-4.37.19-5.48,1.42-8.1,2.5-5.33,7.69-9.4,13.45-10.53,3.18-.62,4.85-.62,8.58.02,3.36.57,9.47,3.5,9.34,4.48-.04.3-1.05,1.76-2.28,3.3-1.96,2.45-2.31,2.68-3.07,2.01-1.7-1.52-5.65-2.88-8.42-2.89-3.41-.02-6.2,1.26-8.53,3.92-4.66,5.3-3.15,14.71,2.93,18.27,3.06,1.79,7.94,1.99,11.3.47,2.17-.98,2.19-1.02,2.19-3.84v-2.85h-8v-6.93h15.99v15.94ZM68.92,111.67h-19.72v8h17.06v6.93h-17.06v8.53h19.72v6.93h-27.72v-37.32h27.72v6.93ZM171.27,142.05h-16.53l-4.08-6.13-4.08-6.13h-6.77v12.26h-35.72l-.02-8.69c-.03-8.48-.23-9.07-1.49-4.37-1.39,5.16-5.42,9.3-11.23,11.54-2.54.98-4.4,1.18-12.45,1.39l-9.46.24v-37.58l9.49.3c10.4.33,13.34,1.02,17.7,4.18,2.52,1.83,5.12,5.65,5.95,8.74,1.26,4.7,1.46,4.1,1.49-4.37l.02-8.69h27.19v6.93h-19.72v8h17.59v6.93h-17.59v8.53l20.52-.27.13-15.14.13-15.14,10.23.3c11.73.35,13.56.77,16.74,3.83,2.68,2.58,3.66,5.62,3.25,10.04-.36,3.84-2.15,6.71-5.38,8.61l-2.4,1.41,8.74,12.79.27-36.84h7.46v37.32ZM260.99,139.73c-5.09,3.83-15.35,3.32-21.86-1.1l-2.03-1.38-.32,4.8h-7.41v-14.93h-15.99v14.93h-7.46v-2.67c0-1.49-.14-2.67-.32-2.67s-1.28.82-2.51,1.87c-3.07,2.63-6.66,3.72-12.1,3.7-3.73-.02-5.07-.27-7.57-1.42-4-1.84-7.55-5.22-9.36-8.89-1.31-2.67-1.47-3.57-1.47-8.58,0-5.39.07-5.72,1.82-8.96,2.83-5.21,7.29-8.54,13-9.67,3.25-.65,4.58-.65,8.1,0,3.36.62,7.59,2.51,8.76,3.91,1.17,1.41,1.64.96,1.64-1.55v-2.4h7.46v14.98l15.73-.32.32-14.66h7.41l.05,31.19,2.02-2.37,2.03-2.37,2.72,1.75c5.38,3.46,12.84,3.38,13.74-.15.73-2.87-.84-4.12-7.56-6.02-9.22-2.6-11.93-5.16-11.91-11.26.02-4.85,2.9-8.7,7.65-10.23,3.42-1.1,10.66-.49,14.18,1.19,4.8,2.29,4.71,2.1,2.52,5.41l-1.98,2.99-3.09-1.56c-4-2.01-6.91-2.46-9.33-1.45-3.09,1.29-3.26,4.44-.32,5.96.88.46,3.68,1.43,6.24,2.17,8.69,2.52,11.36,5.07,11.38,10.86.02,4.05-1.2,6.62-4.19,8.88Z"/>
  <path class="cls-1" d="M62.36,81.6c1.27-1.09,1.49-1.68,1.49-3.97,0-2.08-.28-2.97-1.23-3.92-1.1-1.1-1.84-1.25-7.33-1.41l-6.1-.19v10.77h5.84c5.39,0,5.95-.1,7.33-1.28Z"/>
  <path class="cls-1" d="M203.2,112.86c-2.33,2.67-2.5,2.76-3.47,1.92-3.34-2.91-8.9-3.97-12.63-2.41-2.35.98-5.52,4.62-6.22,7.13-2.27,8.16,2.74,15.62,10.48,15.62,3.15,0,4.96-.59,7.78-2.51l2.03-1.38,2.37,2.32,2.37,2.32v-12.9c0-7.09-.06-12.9-.13-12.9s-1.23,1.25-2.59,2.8Z"/>
</svg>