<svg xmlns="http://www.w3.org/2000/svg" xmlns:xlink="http://www.w3.org/1999/xlink" version="1.1" id="Layer_1" x="0px" y="0px" enable-background="new 0 0 768 1024" xml:space="preserve" viewBox="127.9 398.67 513.2 240.58">
<path fill="#f4f8ff" opacity="1.000000" stroke="none" d=" M169.079590,582.985596   C201.964493,571.511108 234.475128,560.161377 266.985779,548.811707   C252.495575,551.690674 237.879639,553.788940 223.102142,554.773376   C196.390488,556.552979 170.240723,555.639526 146.061157,541.859497   C128.448334,531.821899 123.135696,513.908386 132.388672,495.777466   C141.199051,478.513794 155.024933,466.032288 169.647141,454.010132   C188.842560,438.228058 210.873871,427.082214 232.189499,414.743103   C232.593704,414.509125 232.971344,414.229309 233.654419,413.776672   C227.554855,412.476562 221.870956,414.481110 216.154434,414.149902   C213.262787,413.982391 209.087189,414.547638 208.946213,410.723267   C208.800797,406.778931 213.228806,407.121155 215.939255,406.885132   C229.186600,405.731354 242.497284,405.225800 255.712280,403.808105   C263.939697,402.925476 271.853943,399.940643 280.174377,399.162964   C285.671875,398.649109 291.186493,397.417786 295.287933,402.742218   C296.189484,403.912598 297.725220,403.645538 299.042786,403.661621   C316.018799,403.868469 332.984619,404.385132 349.912842,405.707275   C373.902527,407.580994 397.861969,409.714905 421.779541,412.451416   C447.588287,415.404358 473.131256,419.682343 498.376373,425.715454   C506.806976,427.730164 515.104553,430.429169 521.884033,436.207336   C527.980652,441.403442 528.048828,448.098022 522.764526,454.098999   C515.655884,462.171906 506.550537,467.330078 497.235168,472.172943   C479.053436,481.625275 460.600311,490.502777 441.216614,497.280792   C439.403778,497.914673 437.851013,498.753082 436.990906,500.520691   C431.028015,512.774536 424.184418,524.623901 421.073700,538.127808   C419.439545,545.221741 419.791992,551.046875 427.396454,554.363342   C428.005463,554.628967 428.287750,555.643677 428.729584,556.322205   C424.624481,558.656067 419.404236,557.332275 416.716675,553.067078   C414.562469,549.648315 413.676178,545.938965 414.357056,541.678040   C416.604279,527.614990 423.163666,515.253174 429.398773,502.171356   C426.995422,502.434875 425.141266,503.044281 423.839386,504.871399   C416.725067,514.855774 410.361450,525.308716 403.591064,536.587769   C407.391724,535.148438 410.272217,534.057617 413.088928,532.990967   C414.689819,535.175476 413.613007,536.643250 412.130798,537.401489   C406.732300,540.163208 402.761230,544.879150 397.514526,547.815613   C394.556152,549.471375 391.697449,551.188354 388.487152,548.073608   C386.714691,546.353943 384.677155,547.712524 382.863525,548.380859   C375.286041,551.173340 367.533173,552.832520 359.406952,552.322021   C358.576080,552.269836 357.734955,552.312195 356.912537,552.204346   C345.387970,550.693359 340.984497,543.646423 343.889374,530.437866   C334.246185,533.347290 324.912201,536.101562 315.616302,538.979004   C277.616028,550.741760 240.308060,564.538269 202.709671,577.481384   C183.665726,584.037109 164.660980,590.706665 145.628128,597.294861   C143.585724,598.001831 141.495026,598.602112 139.387512,599.078186   C137.628876,599.475464 135.929016,599.020325 135.119370,597.302612   C134.258911,595.477112 135.346664,594.064514 136.786804,593.047119   C140.237427,590.609436 144.185135,588.263550 148.209625,588.407410   C155.730713,588.676270 161.882339,584.833679 169.079590,582.985596  M266.985748,516.683044   C262.036743,518.139954 257.114594,519.699524 252.126022,521.005127   C250.022064,521.555847 247.456207,521.775635 246.633865,519.073242   C245.814529,516.380798 248.112991,515.189392 250.108948,514.395569   C253.039871,513.230042 256.037811,512.019653 259.121063,511.485718   C276.696228,508.441986 291.310608,499.131622 305.809387,489.617157   C315.033844,483.563812 323.647156,476.788605 329.921539,467.449829   C335.373901,459.334625 335.299377,451.768097 329.228760,443.988739   C324.996307,438.564972 319.994873,433.986542 313.974579,430.528595   C297.816925,421.247955 280.294952,416.244476 261.888519,414.564270   C255.397659,413.971771 248.447998,412.436859 242.216248,415.749359   C217.075790,429.112885 191.801636,442.238525 170.043365,461.064270   C156.991821,472.356781 144.413406,483.921875 136.922119,499.885040   C132.659500,508.968262 131.669235,523.848450 143.081787,532.476074   C151.358170,538.732788 160.465607,542.936829 170.299210,545.606873   C192.921188,551.749268 215.910004,550.263306 238.719986,547.443359   C272.112671,543.315125 304.160553,533.886292 334.942322,520.311829   C339.508850,518.297974 344.306732,516.198914 347.549683,511.896332   C344.288239,509.364136 343.150940,508.971283 339.601624,508.348358   C326.264221,506.007477 313.047394,507.934509 299.914612,509.836273   C289.088287,511.404053 278.080688,512.383240 266.985748,516.683044  M435.269287,419.375000   C380.452209,413.048370 325.542084,408.303101 269.270111,409.431946   C270.713165,409.874634 271.165039,410.062469 271.635498,410.147766   C272.780945,410.355347 273.946533,410.461151 275.083923,410.702545   C294.502441,414.824524 313.182373,420.663727 327.918518,434.902313   C339.729340,446.314362 344.325531,458.133484 332.806671,473.148468   C326.852692,480.909607 319.796661,487.386658 311.653412,492.729950   C305.951935,496.471069 300.224823,500.173096 293.517151,504.538177   C306.791473,502.781036 318.836273,501.276367 331.021362,501.658875   C336.543610,501.832245 342.030518,502.369812 347.200317,504.330719   C354.775024,507.203949 355.708984,513.087402 349.652710,518.387573   C345.832367,521.730957 341.125397,523.639893 336.891052,526.405457   C342.477875,523.444153 349.376648,524.099548 354.406067,519.713013   C361.804626,513.260071 370.422516,508.957977 379.680542,505.958527   C385.914825,503.938721 392.296906,502.801636 398.745636,505.264099   C400.297119,505.856537 401.724213,505.250549 403.114258,504.763794   C408.298035,502.948547 413.452637,501.050171 418.619598,499.186890   C420.070923,498.663544 421.138702,497.784088 422.046021,496.463409   C428.269653,487.404785 434.411407,478.281769 440.912109,469.423584   C449.774048,457.347931 458.527771,445.156036 469.430725,434.748047   C470.775146,433.464600 472.213196,431.915680 474.134949,433.535980   C475.965393,435.079285 474.515076,436.773468 473.542480,437.905853   C464.224609,448.754456 458.682495,461.955688 451.079132,473.869049   C448.062225,478.596100 446.027069,483.949738 442.995422,490.140167   C460.899872,483.989685 476.414062,476.348511 491.752594,468.372955   C500.886963,463.623352 510.191925,459.032776 517.359680,451.245453   C521.989990,446.214966 521.881104,443.467133 516.514893,439.489807   C510.489746,435.024200 503.415070,433.060760 496.353027,431.121674   C476.584320,425.693726 456.253510,423.151947 435.269287,419.375000  M401.940155,511.423279   C400.594849,512.049561 398.877045,512.341370 397.965057,513.356873   C392.318665,519.644409 385.359802,524.213623 378.235138,528.494446   C370.310852,533.255737 362.093292,537.429077 352.392914,533.843750   C350.246643,533.050476 349.192383,534.067017 348.613708,535.842407   C347.418945,539.507935 348.488342,542.478638 351.872681,544.333740   C354.667542,545.865723 357.715637,546.616821 360.964447,546.646790   C371.455109,546.743530 381.283142,543.493469 391.195435,540.711426   C392.561035,540.328186 394.143860,539.453491 394.888519,538.321167   C401.423706,528.383789 407.791412,518.336304 414.994629,507.094971   C409.870636,508.821594 406.281067,510.031189 401.940155,511.423279  M378.297791,522.749695   C381.042175,520.901550 383.786591,519.053406 386.530975,517.205200   C375.566193,521.513489 363.430939,522.499634 352.604156,529.061646   C359.779663,532.522644 368.474945,530.189758 378.297791,522.749695  M443.500122,475.151581   C445.012268,472.663300 446.524414,470.175049 448.036560,467.686768   C447.801056,467.556458 447.565552,467.426147 447.330078,467.295837   C441.733765,476.108673 436.137451,484.921539 430.541168,493.734375   C431.040131,494.050873 431.539124,494.367401 432.038116,494.683899   C437.840576,489.752258 439.673737,482.246063 443.500122,475.151581  z"/>
<path fill="#f4f8ff" opacity="1.000000" stroke="none" d=" M483.154785,621.285278   C468.660309,625.821167 454.083679,628.799255 440.515869,634.911316   C438.096161,636.001343 435.776215,637.310852 433.386353,638.469788   C431.850616,639.214478 430.131714,639.961060 429.046234,637.959045   C428.117798,636.246643 428.826569,634.713379 430.374969,633.632324   C435.066864,630.356750 440.406189,628.401123 445.720551,626.518860   C462.975281,620.407410 480.885406,616.423584 498.243896,610.671082   C519.547974,603.611145 540.756775,596.244019 561.102112,586.641296   C574.260071,580.431091 582.630859,569.015198 591.573547,558.346863   C604.600037,542.806519 616.143188,526.020813 630.777100,511.831177   C633.590576,509.103149 636.058044,505.890381 640.085754,505.018494   C641.691711,506.424164 641.135498,507.604553 640.170166,508.654114   C620.674316,529.851929 603.997314,553.394043 584.952637,574.974243   C574.608459,586.695496 561.630615,594.072937 547.198547,599.287415   C526.092346,606.913513 505.315216,615.499634 483.154785,621.285278  z"/>
<path fill="#f4f8ff" opacity="1.000000" stroke="none" d=" M583.079712,460.949341   C584.515686,460.660431 585.635193,459.909882 586.742188,460.927643   C587.235107,462.694183 586.015198,463.519684 584.905518,464.586334   C573.862488,475.201141 563.372498,486.332825 555.509705,499.576050   C551.192444,506.847717 549.098083,514.800476 550.395569,523.437866   C551.303284,529.480591 557.181152,533.980042 563.236389,533.087585   C569.365967,532.184204 575.077332,529.769226 581.057556,528.338684   C585.098389,527.372070 589.741882,525.520996 592.674194,529.492615   C595.789246,533.711670 591.706909,537.191101 589.675537,540.656677   C589.013489,541.786072 588.053040,542.762512 587.129578,543.712158   C585.340332,545.552063 583.272888,547.657349 580.844543,545.044739   C578.555969,542.582581 580.869019,540.832214 582.630737,539.316589   C584.285095,537.893433 585.852966,536.473572 586.225220,533.835876   C582.908447,533.139954 580.076477,534.751648 577.152588,535.464905   C573.603516,536.330566 570.182617,537.756409 566.614929,538.503967   C558.210327,540.264832 555.060059,538.989563 545.759583,530.652466   C540.911255,534.566589 536.169678,538.698364 531.106812,542.389526   C526.767334,545.553223 521.955261,547.896057 516.281372,547.354980   C512.243774,546.969971 509.499542,544.620544 509.305817,540.774475   C508.946106,533.632874 512.500488,527.802917 517.834290,523.544922   C523.326477,519.160461 529.645569,516.335999 536.992859,519.154724   C537.157532,521.951599 535.419067,521.996338 533.730042,522.240601   C525.498657,523.430847 519.892029,528.188599 516.130493,535.371155   C515.261780,537.029907 514.532166,538.959961 515.817688,540.557495   C517.317444,542.421265 519.483459,541.791077 521.347656,541.013428   C529.654968,537.548096 536.014465,531.344116 542.696594,525.612915   C544.083008,524.423828 543.995544,522.616821 544.013672,520.946838   C544.167114,506.794128 549.757507,494.974640 558.940063,484.408905   C566.270020,475.974945 573.466614,467.491577 583.079712,460.949341  z"/>
<path fill="#f4f8ff" opacity="1.000000" stroke="none" d=" M487.444397,527.422363   C483.732269,531.286133 479.057953,534.171570 480.287415,540.430359   C480.615692,542.101807 478.954529,542.953552 477.526642,543.549744   C470.135651,546.635864 462.604614,549.267151 454.482971,549.344604   C445.183167,549.433289 439.577484,543.197327 440.488373,534.013245   C440.651672,532.366760 441.074280,530.706726 440.387054,529.086792   C439.886444,527.906738 439.818939,526.809448 440.912476,525.936646   C448.147797,520.161560 454.301575,513.010986 462.738983,508.764404   C463.184784,508.540039 463.617035,508.281433 464.079102,508.098022   C469.450043,505.966217 475.078064,506.695374 476.998413,509.760162   C478.750427,512.556335 476.635773,517.062927 471.520020,520.851318   C464.840668,525.797607 458.244232,530.993896 449.398590,531.462830   C447.627899,531.556702 446.674316,532.587158 446.449402,534.277100   C446.058777,537.212158 446.343781,539.992371 448.932800,541.931335   C451.190765,543.622314 453.847534,543.951233 456.547058,543.581604   C458.846954,543.266602 461.125366,542.751648 463.388428,542.219421   C468.282379,541.068481 472.602051,539.723022 474.793854,534.058533   C477.169556,527.918579 482.328979,523.621643 487.735168,519.876038   C489.959595,518.334900 492.609497,516.536255 495.027130,517.005798   C502.714691,518.498657 504.605072,513.273743 506.642273,507.972504   C507.451385,505.867004 508.675476,504.334015 511.068909,505.137390   C512.913635,505.756622 513.077393,507.651550 513.018738,509.342133   C512.998169,509.934509 512.600098,510.665314 512.141663,511.068146   C505.655243,516.768616 503.241394,524.412781 501.786560,532.529175   C501.728149,532.855164 501.597870,533.167542 501.518372,533.490540   C500.928894,535.884888 500.628021,539.307678 497.460907,538.716492   C494.228882,538.113220 496.785400,535.149414 496.613281,533.240112   C496.312073,529.898621 497.295654,526.719482 498.075348,523.078186   C493.586060,522.564697 490.578888,524.696411 487.444397,527.422363  M455.372711,524.616394   C460.783051,521.880737 465.859833,518.704895 469.531677,513.606934   C461.791351,515.190613 456.104706,519.946777 450.422089,525.524475   C452.446014,526.197449 453.555542,525.338440 455.372711,524.616394  z"/>
</svg>