<?xml version="1.0" encoding="UTF-8"?>
<svg id="Layer_1" xmlns="http://www.w3.org/2000/svg" version="1.1" viewBox="0 0 1024 1024">
  <!-- Generator: Adobe Illustrator 29.5.1, SVG Export Plug-In . SVG Version: 2.1.0 Build 141)  -->
  <defs>
    <style>
      .st0 {
        fill: #FFFFFF;
        stroke: #ffffff;
        stroke-miterlimit: 10;
        stroke-width: 10px;
      }
    </style>
  </defs>
  <path class="st0" d="M960,288H64c-19.2,0-32-12.8-32-32s12.8-32,32-32h896c19.2,0,32,12.8,32,32s-12.8,32-32,32ZM960,544H64c-19.2,0-32-12.8-32-32s12.8-32,32-32h896c19.2,0,32,12.8,32,32s-12.8,32-32,32ZM960,800H64c-19.2,0-32-12.8-32-32s12.8-32,32-32h896c19.2,0,32,12.8,32,32s-12.8,32-32,32Z"/>
</svg>